<svg  xmlns="http://www.w3.org/2000/svg" width="774px" height="495px" style="background-color: rgba(256,256,256,1.0);float:left" 	xmlns:xlink="http://www.w3.org/1999/xlink"><defs></defs><rect id="rect137300736" x="26.5" y="1.5" width="50.0" height="20" style="fill:rgb(205,230,234); fill-opacity:1.0; stroke:rgb(160,160,160); stroke-width:1; " class="" /><text id="text142290176" x="34" y="17" style="fill:rgb(128,128,128); " transform="rotate(0,42,12) " class="" ><tspan font-family = "Arial, Helvetica, sans-serif" font-size="12px">sload</tspan></text><rect id="rect36134144" x="362.0" y="1.5" width="50.0" height="20" style="fill:rgb(205,230,234); fill-opacity:1.0; stroke:rgb(160,160,160); stroke-width:1; " class="" /><text id="text642427648" x="370" y="17" style="fill:rgb(128,128,128); " transform="rotate(0,378,12) " class="" ><tspan font-family = "Arial, Helvetica, sans-serif" font-size="12px">sload</tspan></text><rect id="rect688454400" x="362.0" y="42.5" width="50.0" height="20" style="fill:rgb(205,230,234); fill-opacity:1.0; stroke:rgb(160,160,160); stroke-width:1; " class="" /><text id="text211205376" x="371" y="58" style="fill:rgb(128,128,128); " transform="rotate(0,378,53) " class="" ><tspan font-family = "Arial, Helvetica, sans-serif" font-size="12px">fload</tspan></text><rect id="rect1052372224" x="129.5" y="83.5" width="50.0" height="20" style="fill:rgb(205,230,234); fill-opacity:1.0; stroke:rgb(160,160,160); stroke-width:1; " class="" /><text id="text544643840" x="138" y="99" style="fill:rgb(128,128,128); " transform="rotate(0,146,94) " class="" ><tspan font-family = "Arial, Helvetica, sans-serif" font-size="12px">fload</tspan></text><rect id="rect12970752" x="104.5" y="124.5" width="50.0" height="20" style="fill:rgb(256,238,214); fill-opacity:1.0; stroke:rgb(160,160,160); stroke-width:1; " class="" /><text id="text29838592" x="121" y="140" style="fill:rgb(128,128,128); " transform="rotate(0,125,135) " class="" ><tspan font-family = "Arial, Helvetica, sans-serif" font-size="12px">eq</tspan></text><rect id="rect840006912" x="154.5" y="124.5" width="50.0" height="20" style="fill:rgb(0,0,0); fill-opacity:0.0; stroke:rgb(160,160,160); stroke-width:1; " class="" /><text id="text438668032" x="168" y="140" style="fill:rgb(128,128,128); " transform="rotate(0,173,135) " class="" ><tspan font-family = "Arial, Helvetica, sans-serif" font-size="12px">+63</tspan></text><rect id="rect282450688" x="335.5" y="83.5" width="50.0" height="20" style="fill:rgb(205,230,234); fill-opacity:1.0; stroke:rgb(160,160,160); stroke-width:1; " class="" /><text id="text136109312" x="344" y="99" style="fill:rgb(128,128,128); " transform="rotate(0,352,94) " class="" ><tspan font-family = "Arial, Helvetica, sans-serif" font-size="12px">fload</tspan></text><rect id="rect725486848" x="259.0" y="124.5" width="50.0" height="20" style="fill:rgb(223,250,255); fill-opacity:1.0; stroke:rgb(160,160,160); stroke-width:1; " class="" /><text id="text919042816" x="267" y="140" style="fill:rgb(128,128,128); " transform="rotate(0,275,135) " class="" ><tspan font-family = "Arial, Helvetica, sans-serif" font-size="12px">hrefk</tspan></text><rect id="rect363383552" x="309.0" y="124.5" width="50.0" height="20" style="fill:rgb(0,0,0); fill-opacity:0.0; stroke:rgb(160,160,160); stroke-width:1; " class="" /><text id="text1017605376" x="315" y="140" style="fill:rgb(128,128,128); " transform="rotate(0,323,135) " class="" ><tspan font-family = "Arial, Helvetica, sans-serif" font-size="12px">&lt;p32&gt;</tspan></text><rect id="rect642751744" x="284.0" y="165.5" width="50.0" height="20" style="fill:rgb(205,230,234); fill-opacity:1.0; stroke:rgb(160,160,160); stroke-width:1; " class="" /><text id="text885811968" x="291" y="181" style="fill:rgb(128,128,128); " transform="rotate(0,299,176) " class="" ><tspan font-family = "Arial, Helvetica, sans-serif" font-size="12px">hload</tspan></text><rect id="rect917420800" x="232.5" y="206.5" width="50.0" height="20" style="fill:rgb(205,230,234); fill-opacity:1.0; stroke:rgb(160,160,160); stroke-width:1; " class="" /><text id="text158792960" x="241" y="222" style="fill:rgb(128,128,128); " transform="rotate(0,249,217) " class="" ><tspan font-family = "Arial, Helvetica, sans-serif" font-size="12px">fload</tspan></text><rect id="rect475409664" x="207.5" y="247.5" width="50.0" height="20" style="fill:rgb(256,238,214); fill-opacity:1.0; stroke:rgb(160,160,160); stroke-width:1; " class="" /><text id="text497310464" x="224" y="263" style="fill:rgb(128,128,128); " transform="rotate(0,228,258) " class="" ><tspan font-family = "Arial, Helvetica, sans-serif" font-size="12px">eq</tspan></text><rect id="rect911715072" x="257.5" y="247.5" width="50.0" height="20" style="fill:rgb(0,0,0); fill-opacity:0.0; stroke:rgb(160,160,160); stroke-width:1; " class="" /><text id="text899386624" x="271" y="263" style="fill:rgb(128,128,128); " transform="rotate(0,276,258) " class="" ><tspan font-family = "Arial, Helvetica, sans-serif" font-size="12px">+31</tspan></text><rect id="rect325172480" x="335.5" y="206.5" width="50.0" height="20" style="fill:rgb(205,230,234); fill-opacity:1.0; stroke:rgb(160,160,160); stroke-width:1; " class="" /><text id="text901729024" x="344" y="222" style="fill:rgb(128,128,128); " transform="rotate(0,352,217) " class="" ><tspan font-family = "Arial, Helvetica, sans-serif" font-size="12px">fload</tspan></text><rect id="rect571710208" x="310.5" y="247.5" width="50.0" height="20" style="fill:rgb(223,250,255); fill-opacity:1.0; stroke:rgb(160,160,160); stroke-width:1; " class="" /><text id="text891624704" x="319" y="263" style="fill:rgb(128,128,128); " transform="rotate(0,326,258) " class="" ><tspan font-family = "Arial, Helvetica, sans-serif" font-size="12px">hrefk</tspan></text><rect id="rect780291328" x="360.5" y="247.5" width="50.0" height="20" style="fill:rgb(0,0,0); fill-opacity:0.0; stroke:rgb(160,160,160); stroke-width:1; " class="" /><text id="text747453184" x="366" y="263" style="fill:rgb(128,128,128); " transform="rotate(0,375,258) " class="" ><tspan font-family = "Arial, Helvetica, sans-serif" font-size="12px">&lt;p32&gt;</tspan></text><rect id="rect38963968" x="335.5" y="288.5" width="50.0" height="20" style="fill:rgb(205,230,234); fill-opacity:1.0; stroke:rgb(160,160,160); stroke-width:1; " class="" /><text id="text958639360" x="343" y="304" style="fill:rgb(128,128,128); " transform="rotate(0,351,299) " class="" ><tspan font-family = "Arial, Helvetica, sans-serif" font-size="12px">hload</tspan></text><rect id="rect1036508416" x="310.5" y="329.5" width="50.0" height="20" style="fill:rgb(256,238,214); fill-opacity:1.0; stroke:rgb(160,160,160); stroke-width:1; " class="" /><text id="text209595136" x="327" y="345" style="fill:rgb(128,128,128); " transform="rotate(0,331,340) " class="" ><tspan font-family = "Arial, Helvetica, sans-serif" font-size="12px">eq</tspan></text><rect id="rect176454400" x="360.5" y="329.5" width="50.0" height="20" style="fill:rgb(0,0,0); fill-opacity:0.0; stroke:rgb(160,160,160); stroke-width:1; " class="" /><text id="text1067924736" x="364" y="345" style="fill:rgb(128,128,128); " transform="rotate(0,374,340) " class="" ><tspan font-family = "Arial, Helvetica, sans-serif" font-size="12px">&lt;func&gt;</tspan></text><rect id="rect239234304" x="672.5" y="1.5" width="50.0" height="20" style="fill:rgb(0,0,0); fill-opacity:0.0; stroke:rgb(160,160,160); stroke-width:1; " class="" /><text id="text721558272" x="678" y="17" style="fill:rgb(128,128,128); " transform="rotate(0,687,12) " class="" ><tspan font-family = "Arial, Helvetica, sans-serif" font-size="12px">&lt;pgc&gt;</tspan></text><rect id="rect152660736" x="722.5" y="1.5" width="50.0" height="20" style="fill:rgb(256,154,0); fill-opacity:1.0; stroke:rgb(160,160,160); stroke-width:1; " class="" /><text id="text599772416" x="733" y="17" style="fill:rgb(128,128,128); " transform="rotate(0,739,12) " class="" ><tspan font-family = "Arial, Helvetica, sans-serif" font-size="12px">calls</tspan></text><rect id="rect973208832" x="672.5" y="42.5" width="50.0" height="20" style="fill:rgb(224,256,214); fill-opacity:1.0; stroke:rgb(160,160,160); stroke-width:1; " class="" /><text id="text411634432" x="685" y="58" style="fill:rgb(128,128,128); " transform="rotate(0,691,53) " class="" ><tspan font-family = "Arial, Helvetica, sans-serif" font-size="12px">sub</tspan></text><rect id="rect394353408" x="722.5" y="42.5" width="50.0" height="20" style="fill:rgb(0,0,0); fill-opacity:0.0; stroke:rgb(160,160,160); stroke-width:1; " class="" /><text id="text763190528" x="725" y="58" style="fill:rgb(128,128,128); " transform="rotate(0,735,53) " class="" ><tspan font-family = "Arial, Helvetica, sans-serif" font-size="12px">&lt;num&gt;</tspan></text><rect id="rect941001984" x="413.5" y="124.5" width="50.0" height="20" style="fill:rgb(223,250,255); fill-opacity:1.0; stroke:rgb(160,160,160); stroke-width:1; " class="" /><text id="text277019392" x="422" y="140" style="fill:rgb(128,128,128); " transform="rotate(0,429,135) " class="" ><tspan font-family = "Arial, Helvetica, sans-serif" font-size="12px">hrefk</tspan></text><rect id="rect170674944" x="463.5" y="124.5" width="50.0" height="20" style="fill:rgb(0,0,0); fill-opacity:0.0; stroke:rgb(160,160,160); stroke-width:1; " class="" /><text id="text569371904" x="469" y="140" style="fill:rgb(128,128,128); " transform="rotate(0,478,135) " class="" ><tspan font-family = "Arial, Helvetica, sans-serif" font-size="12px">&lt;p32&gt;</tspan></text><rect id="rect747642112" x="541.5" y="83.5" width="50.0" height="20" style="fill:rgb(205,230,234); fill-opacity:1.0; stroke:rgb(160,160,160); stroke-width:1; " class="" /><text id="text694151936" x="550" y="99" style="fill:rgb(128,128,128); " transform="rotate(0,558,94) " class="" ><tspan font-family = "Arial, Helvetica, sans-serif" font-size="12px">fload</tspan></text><rect id="rect545929984" x="516.5" y="124.5" width="50.0" height="20" style="fill:rgb(256,238,214); fill-opacity:1.0; stroke:rgb(160,160,160); stroke-width:1; " class="" /><text id="text321355008" x="533" y="140" style="fill:rgb(128,128,128); " transform="rotate(0,537,135) " class="" ><tspan font-family = "Arial, Helvetica, sans-serif" font-size="12px">eq</tspan></text><rect id="rect947825920" x="566.5" y="124.5" width="50.0" height="20" style="fill:rgb(0,0,0); fill-opacity:0.0; stroke:rgb(160,160,160); stroke-width:1; " class="" /><text id="text76536576" x="573" y="140" style="fill:rgb(128,128,128); " transform="rotate(0,581,135) " class="" ><tspan font-family = "Arial, Helvetica, sans-serif" font-size="12px">&lt;tab&gt;</tspan></text><rect id="rect889924352" x="413.5" y="165.5" width="50.0" height="20" style="fill:rgb(187,210,214); fill-opacity:1.0; stroke:rgb(160,160,160); stroke-width:1; " class="" /><text id="text808717568" x="418" y="181" style="fill:rgb(128,128,128); " transform="rotate(0,427,176) " class="" ><tspan font-family = "Arial, Helvetica, sans-serif" font-size="12px">hstore</tspan></text><rect id="rect166870272" x="619.5" y="83.5" width="50.0" height="20" style="fill:rgb(256,157,8); fill-opacity:1.0; stroke:rgb(160,160,160); stroke-width:1; " class="" /><text id="text1048759040" x="631" y="99" style="fill:rgb(128,128,128); " transform="rotate(0,637,94) " class="" ><tspan font-family = "Arial, Helvetica, sans-serif" font-size="12px">tbar</tspan></text><rect id="rect757013248" x="1.5" y="42.5" width="50.0" height="20" style="fill:rgb(224,256,214); fill-opacity:1.0; stroke:rgb(160,160,160); stroke-width:1; " class="" /><text id="text354786560" x="14" y="58" style="fill:rgb(128,128,128); " transform="rotate(0,20,53) " class="" ><tspan font-family = "Arial, Helvetica, sans-serif" font-size="12px">add</tspan></text><rect id="rect737856768" x="51.5" y="42.5" width="50.0" height="20" style="fill:rgb(0,0,0); fill-opacity:0.0; stroke:rgb(160,160,160); stroke-width:1; " class="" /><text id="text514374400" x="68" y="58" style="fill:rgb(128,128,128); " transform="rotate(0,72,53) " class="" ><tspan font-family = "Arial, Helvetica, sans-serif" font-size="12px">+1</tspan></text><rect id="rect691407616" x="1.5" y="83.5" width="50.0" height="20" style="fill:rgb(256,238,214); fill-opacity:1.0; stroke:rgb(160,160,160); stroke-width:1; " class="" /><text id="text453782784" x="20" y="99" style="fill:rgb(128,128,128); " transform="rotate(0,23,94) " class="" ><tspan font-family = "Arial, Helvetica, sans-serif" font-size="12px">le</tspan></text><rect id="rect380132608" x="51.5" y="83.5" width="50.0" height="20" style="fill:rgb(0,0,0); fill-opacity:0.0; stroke:rgb(160,160,160); stroke-width:1; " class="" /><text id="text124889856" x="61" y="99" style="fill:rgb(128,128,128); " transform="rotate(0,68,94) " class="" ><tspan font-family = "Arial, Helvetica, sans-serif" font-size="12px">+100</tspan></text><rect id="rect884996864" x="1.0" y="391.5" width="50.0" height="20" style="fill:rgb(0,0,0); fill-opacity:0.0; stroke:rgb(160,160,160); stroke-width:1; " class="" /><text id="text670547200" x="7" y="407" style="fill:rgb(128,128,128); " transform="rotate(0,15,402) " class="" ><tspan font-family = "Arial, Helvetica, sans-serif" font-size="12px">&lt;pgc&gt;</tspan></text><rect id="rect1057680640" x="51.0" y="391.5" width="50.0" height="20" style="fill:rgb(256,154,0); fill-opacity:1.0; stroke:rgb(160,160,160); stroke-width:1; " class="" /><text id="text642620160" x="61" y="407" style="fill:rgb(128,128,128); " transform="rotate(0,68,402) " class="" ><tspan font-family = "Arial, Helvetica, sans-serif" font-size="12px">calls</tspan></text><rect id="rect908913408" x="1.0" y="432.5" width="50.0" height="20" style="fill:rgb(224,256,214); fill-opacity:1.0; stroke:rgb(160,160,160); stroke-width:1; " class="" /><text id="text1056460032" x="14" y="448" style="fill:rgb(128,128,128); " transform="rotate(0,19,443) " class="" ><tspan font-family = "Arial, Helvetica, sans-serif" font-size="12px">sub</tspan></text><rect id="rect657620224" x="51.0" y="432.5" width="50.0" height="20" style="fill:rgb(0,0,0); fill-opacity:0.0; stroke:rgb(160,160,160); stroke-width:1; " class="" /><text id="text598510336" x="54" y="448" style="fill:rgb(128,128,128); " transform="rotate(0,64,443) " class="" ><tspan font-family = "Arial, Helvetica, sans-serif" font-size="12px">&lt;num&gt;</tspan></text><rect id="rect518839040" x="1.0" y="473.5" width="50.0" height="20" style="fill:rgb(187,210,214); fill-opacity:1.0; stroke:rgb(160,160,160); stroke-width:1; " class="" /><text id="text270392576" x="5" y="489" style="fill:rgb(128,128,128); " transform="rotate(0,15,484) " class="" ><tspan font-family = "Arial, Helvetica, sans-serif" font-size="12px">hstore</tspan></text><rect id="rect774835456" x="130.5" y="391.5" width="50.0" height="20" style="fill:rgb(224,256,214); fill-opacity:1.0; stroke:rgb(160,160,160); stroke-width:1; " class="" /><text id="text318667520" x="143" y="407" style="fill:rgb(128,128,128); " transform="rotate(0,149,402) " class="" ><tspan font-family = "Arial, Helvetica, sans-serif" font-size="12px">add</tspan></text><rect id="rect460311296" x="180.5" y="391.5" width="50.0" height="20" style="fill:rgb(0,0,0); fill-opacity:0.0; stroke:rgb(160,160,160); stroke-width:1; " class="" /><text id="text142109952" x="197" y="407" style="fill:rgb(128,128,128); " transform="rotate(0,201,402) " class="" ><tspan font-family = "Arial, Helvetica, sans-serif" font-size="12px">+1</tspan></text><rect id="rect537959680" x="104.0" y="432.5" width="50.0" height="20" style="fill:rgb(256,238,214); fill-opacity:1.0; stroke:rgb(160,160,160); stroke-width:1; " class="" /><text id="text582183680" x="122" y="448" style="fill:rgb(128,128,128); " transform="rotate(0,125,443) " class="" ><tspan font-family = "Arial, Helvetica, sans-serif" font-size="12px">le</tspan></text><rect id="rect52804352" x="154.0" y="432.5" width="50.0" height="20" style="fill:rgb(0,0,0); fill-opacity:0.0; stroke:rgb(160,160,160); stroke-width:1; " class="" /><text id="text571997440" x="164" y="448" style="fill:rgb(128,128,128); " transform="rotate(0,171,443) " class="" ><tspan font-family = "Arial, Helvetica, sans-serif" font-size="12px">+100</tspan></text><rect id="rect99036416" x="207.0" y="432.5" width="50.0" height="20" style="fill:rgb(224,256,214); fill-opacity:1.0; stroke:rgb(160,160,160); stroke-width:1; " class="" /><text id="text205216512" x="222" y="448" style="fill:rgb(128,128,128); " transform="rotate(0,226,443) " class="" ><tspan font-family = "Arial, Helvetica, sans-serif" font-size="12px">phi</tspan></text><text id="text142519040" x="3" y="375" style="fill:rgb(128,128,128); " transform="rotate(0,12,370) " class="" ><tspan font-family = "Arial, Helvetica, sans-serif" font-size="12px">LOOP:</tspan></text><line id="line59" x1="387" y1="22" x2="362" y2="42" style="stroke:rgb(0,0,0); stroke-opacity:0.4; stroke-width:1; " class="" /><line id="line5A" x1="387" y1="63" x2="130" y2="83" style="stroke:rgb(0,0,0); stroke-opacity:0.4; stroke-width:1; " class="" /><line id="line5B" x1="154" y1="104" x2="105" y2="124" style="stroke:rgb(0,0,0); stroke-opacity:0.4; stroke-width:1; " class="" /><line id="line5C" x1="387" y1="63" x2="336" y2="83" style="stroke:rgb(0,0,0); stroke-opacity:0.4; stroke-width:1; " class="" /><line id="line5D" x1="360" y1="104" x2="259" y2="124" style="stroke:rgb(0,0,0); stroke-opacity:0.4; stroke-width:1; " class="" /><line id="line5E" x1="309" y1="145" x2="284" y2="165" style="stroke:rgb(0,0,0); stroke-opacity:0.4; stroke-width:1; " class="" /><line id="line5F" x1="309" y1="186" x2="233" y2="206" style="stroke:rgb(0,0,0); stroke-opacity:0.4; stroke-width:1; " class="" /><line id="line60" x1="257" y1="227" x2="208" y2="247" style="stroke:rgb(0,0,0); stroke-opacity:0.4; stroke-width:1; " class="" /><line id="line61" x1="309" y1="186" x2="336" y2="206" style="stroke:rgb(0,0,0); stroke-opacity:0.4; stroke-width:1; " class="" /><line id="line62" x1="360" y1="227" x2="311" y2="247" style="stroke:rgb(0,0,0); stroke-opacity:0.4; stroke-width:1; " class="" /><line id="line63" x1="360" y1="268" x2="336" y2="288" style="stroke:rgb(0,0,0); stroke-opacity:0.4; stroke-width:1; " class="" /><line id="line64" x1="360" y1="309" x2="311" y2="329" style="stroke:rgb(0,0,0); stroke-opacity:0.4; stroke-width:1; " class="" /><line id="line65" x1="722" y1="22" x2="673" y2="42" style="stroke:rgb(0,0,0); stroke-opacity:0.4; stroke-width:1; " class="" /><line id="line66" x1="360" y1="104" x2="414" y2="124" style="stroke:rgb(0,0,0); stroke-opacity:0.4; stroke-width:1; " class="" /><line id="line67" x1="387" y1="63" x2="542" y2="83" style="stroke:rgb(0,0,0); stroke-opacity:0.4; stroke-width:1; " class="" /><line id="line68" x1="566" y1="104" x2="517" y2="124" style="stroke:rgb(0,0,0); stroke-opacity:0.4; stroke-width:1; " class="" /><line id="line69" x1="463" y1="145" x2="414" y2="165" style="stroke:rgb(0,0,0); stroke-opacity:0.4; stroke-width:1; " class="" /><line id="line6A" x1="387" y1="63" x2="620" y2="83" style="stroke:rgb(0,0,0); stroke-opacity:0.4; stroke-width:1; " class="" /><line id="line6B" x1="51" y1="22" x2="2" y2="42" style="stroke:rgb(0,0,0); stroke-opacity:0.4; stroke-width:1; " class="" /><line id="line6C" x1="51" y1="63" x2="2" y2="83" style="stroke:rgb(0,0,0); stroke-opacity:0.4; stroke-width:1; " class="" /><line id="line6D" x1="51" y1="412" x2="1" y2="432" style="stroke:rgb(0,0,0); stroke-opacity:0.4; stroke-width:1; " class="" /><line id="line6E" x1="463" y1="145" x2="1" y2="473" style="stroke:rgb(0,0,0); stroke-opacity:0.4; stroke-width:1; " class="" /><line id="line6F" x1="51" y1="63" x2="131" y2="391" style="stroke:rgb(0,0,0); stroke-opacity:0.4; stroke-width:1; " class="" /><line id="line70" x1="180" y1="412" x2="104" y2="432" style="stroke:rgb(0,0,0); stroke-opacity:0.4; stroke-width:1; " class="" /><line id="line71" x1="51" y1="63" x2="207" y2="432" style="stroke:rgb(0,0,0); stroke-opacity:0.4; stroke-width:1; " class="" /><line id="line72" x1="722" y1="63" x2="464" y2="165" style="stroke:rgb(0,0,0); stroke-opacity:0.4; stroke-width:1; " class="" /><line id="line73" x1="51" y1="453" x2="51" y2="473" style="stroke:rgb(0,0,0); stroke-opacity:0.4; stroke-width:1; " class="" /><line id="line74" x1="180" y1="412" x2="257" y2="432" style="stroke:rgb(0,0,0); stroke-opacity:0.4; stroke-width:1; " class="" /></svg>